<?xml version="1.0" standalone="no"?>
<!DOCTYPE svg PUBLIC "-//W3C//DTD SVG 20010904//EN"
 "http://www.w3.org/TR/2001/REC-SVG-20010904/DTD/svg10.dtd">
<svg version="1.0" xmlns="http://www.w3.org/2000/svg"
 width="508.000000pt" height="508.000000pt" viewBox="0 0 508.000000 508.000000"
 preserveAspectRatio="xMidYMid meet">
<metadata>
Created by potrace 1.14, written by Peter Selinger 2001-2017
</metadata>
<g transform="translate(0.000000,508.000000) scale(0.100000,-0.100000)"
fill="#000000" stroke="none">
<path d="M2518 4354 c-2 -1 -34 -5 -73 -9 -83 -9 -77 -7 -190 -34 -95 -23
-282 -89 -350 -124 -22 -12 -44 -20 -48 -19 -4 1 -10 -5 -13 -13 -3 -8 -10
-13 -14 -10 -5 3 -14 -1 -22 -8 -7 -7 -15 -14 -18 -14 -16 -3 -60 -27 -60 -33
0 -4 -13 -13 -30 -20 -16 -7 -30 -16 -30 -21 0 -4 -8 -10 -17 -13 -10 -3 -35
-21 -55 -38 -21 -18 -58 -51 -83 -72 -75 -64 -215 -209 -215 -222 0 -3 -5 -10
-10 -17 -47 -55 -60 -74 -60 -84 0 -6 -3 -13 -7 -15 -11 -5 -79 -103 -73 -105
3 -1 -2 -11 -11 -22 -10 -10 -20 -29 -24 -42 -4 -13 -15 -35 -25 -49 -10 -14
-21 -36 -25 -50 -4 -14 -18 -54 -32 -90 -14 -35 -26 -69 -28 -75 -1 -5 -5 -17
-8 -25 -5 -13 -25 -84 -33 -115 -5 -23 -14 -71 -20 -114 -4 -25 -9 -50 -11
-54 -3 -5 -6 -36 -7 -70 -2 -34 -6 -73 -10 -86 -6 -18 -5 -22 4 -16 9 6 11 4
5 -5 -4 -7 -7 -34 -6 -62 0 -27 -3 -46 -9 -43 -5 3 -12 0 -17 -8 -4 -7 -51
-46 -103 -87 -52 -41 -100 -79 -106 -85 -193 -174 -191 -172 -271 -257 -95
-101 -253 -338 -226 -338 5 0 3 -4 -3 -8 -7 -4 -14 -23 -17 -43 -2 -20 -8 -43
-12 -49 -6 -9 -4 -11 6 -5 11 7 12 6 3 -6 -12 -16 -12 -58 0 -78 5 -8 3 -16
-5 -22 -11 -7 -10 -9 5 -9 11 0 17 -3 13 -6 -3 -3 3 -15 13 -27 11 -11 17 -25
13 -30 -3 -6 -1 -7 5 -3 7 4 12 2 12 -3 0 -6 7 -11 15 -11 8 0 15 -4 15 -10 0
-5 6 -10 14 -10 7 0 19 -7 26 -15 7 -8 16 -12 21 -9 5 3 12 -2 15 -11 6 -13 8
-14 15 -3 6 9 9 9 9 1 0 -6 9 -10 20 -8 13 2 20 -2 20 -11 0 -9 -5 -12 -12 -8
-7 5 -8 3 -3 -6 7 -11 10 -10 19 1 13 17 60 13 49 -4 -5 -9 -3 -9 8 -2 18 13
38 12 68 -4 13 -7 21 -8 17 -3 -3 6 -2 13 4 17 5 3 10 2 10 -3 0 -5 25 -8 55
-6 36 1 55 -2 55 -9 0 -8 3 -8 8 -2 4 6 13 10 20 9 6 -1 17 -2 23 -3 5 0 7 -6
3 -13 -4 -7 -3 -8 5 -4 6 4 9 11 6 16 -3 4 2 10 10 14 8 3 17 1 21 -5 3 -6 11
-6 17 -1 14 10 27 10 44 -1 6 -4 14 -3 18 3 11 18 24 11 20 -11 -3 -12 -1 -18
3 -15 7 7 8 11 11 39 1 8 4 7 11 -3 7 -12 10 -12 10 -1 0 7 6 11 15 8 8 -4 17
-3 19 2 3 4 19 7 36 6 16 -1 30 3 30 9 0 5 7 1 15 -10 13 -16 14 -16 9 -1 -8
22 5 22 22 0 13 -17 14 -17 7 1 -5 15 -3 18 10 13 9 -3 17 -2 17 4 0 6 6 9 13
6 6 -2 12 -9 12 -15 0 -5 3 -14 7 -18 4 -3 6 3 3 15 -2 13 1 21 11 22 23 2 28
4 41 12 6 4 14 1 16 -5 4 -10 6 -10 6 0 1 10 6 10 23 1 21 -11 22 -11 9 4 -12
15 -11 17 3 17 9 0 16 -6 16 -12 0 -9 2 -10 8 -2 4 6 18 15 31 19 18 5 22 4
17 -6 -4 -8 0 -5 8 5 15 18 21 15 16 -9 -1 -5 2 -6 7 -2 4 5 9 13 9 18 1 5 2
12 3 16 0 3 11 -2 23 -13 19 -15 20 -16 9 -1 -7 9 -12 17 -10 18 2 1 18 2 34
4 17 1 30 3 30 4 0 3 36 12 53 13 6 1 12 5 12 9 0 5 7 6 15 3 8 -4 15 -1 15 7
0 7 2 10 6 7 3 -3 26 0 51 8 25 8 49 11 54 8 5 -3 12 2 15 10 3 9 10 14 14 11
4 -3 25 2 45 11 35 14 37 14 31 -1 -3 -9 -2 -13 4 -10 6 3 10 13 10 22 0 11 7
14 25 11 13 -3 22 -2 20 2 -7 11 43 22 57 14 7 -4 8 -3 4 4 -11 18 41 27 62
11 15 -12 16 -12 4 2 -10 14 -6 18 33 33 24 10 50 14 56 10 8 -5 9 -3 4 6 -6
10 -4 12 8 7 9 -3 18 0 21 9 8 20 27 17 19 -3 -4 -13 -1 -12 11 3 18 25 81 52
71 31 -4 -7 1 -3 9 7 15 19 27 24 69 28 9 1 17 5 17 9 0 6 34 21 55 23 6 1 16
7 24 14 7 7 20 11 27 8 8 -3 14 -1 14 4 0 6 7 10 15 10 8 0 15 5 15 10 0 6 3
9 8 8 7 -1 56 17 75 29 6 3 7 1 3 -5 -5 -8 -2 -10 8 -6 9 3 13 11 9 17 -4 6 0
8 10 4 9 -3 17 -2 19 3 2 5 10 10 18 12 8 2 17 5 20 8 15 15 93 49 101 44 5
-3 9 -1 9 5 0 5 16 15 35 22 19 7 35 17 35 22 0 4 4 6 9 2 5 -3 13 0 16 6 4 5
14 8 22 5 8 -3 11 -2 8 3 -3 5 11 15 30 22 19 7 35 17 35 23 0 5 3 6 7 3 3 -4
12 -2 20 4 10 9 17 8 31 -2 15 -13 16 -12 4 3 -12 14 -9 19 22 33 27 13 39 14
58 5 22 -10 22 -10 4 4 -18 15 -18 16 5 24 13 6 28 10 33 10 5 0 12 4 15 9 10
16 73 43 84 36 6 -4 7 -1 3 6 -5 8 0 14 13 18 12 3 21 10 21 16 0 6 3 8 6 4 4
-3 13 1 21 9 9 8 22 13 29 10 8 -3 13 0 11 7 -1 7 6 11 17 9 10 -2 15 1 12 6
-3 6 1 12 9 16 8 3 15 0 16 -7 0 -7 5 -1 10 12 7 18 12 21 23 12 11 -9 16 -9
22 0 4 8 3 9 -4 5 -7 -4 -12 -3 -12 3 0 9 19 18 45 22 6 1 16 10 22 19 7 10
24 21 38 24 14 4 25 11 25 16 0 5 7 6 17 3 10 -4 14 -2 9 5 -6 10 30 28 47 24
5 -1 6 2 2 8 -3 5 2 13 12 17 10 3 29 15 42 27 15 13 21 15 17 6 -4 -8 -1 -7
8 4 8 10 20 15 26 11 6 -4 9 -1 8 7 -2 8 6 13 20 12 19 -1 20 1 10 14 -10 12
-10 14 0 8 7 -4 12 -2 12 4 0 6 5 8 10 5 6 -3 10 -1 10 5 0 7 7 9 16 6 12 -5
15 -2 10 10 -4 12 -2 15 9 10 8 -3 15 0 15 7 0 7 20 21 44 32 24 11 42 23 40
27 -9 14 18 19 34 6 15 -12 16 -11 4 4 -9 11 -10 18 -2 23 5 3 10 3 10 -2 0
-4 5 0 11 10 6 9 14 15 20 12 5 -4 9 0 9 8 0 16 27 30 41 22 5 -4 6 1 3 9 -3
9 2 17 15 21 12 3 21 11 21 17 0 6 3 9 6 6 3 -3 15 4 28 16 28 27 74 65 82 68
4 2 34 29 67 61 46 44 65 56 81 52 16 -5 17 -4 7 3 -11 8 -5 19 33 56 26 26
51 44 57 41 5 -4 9 -3 8 2 -3 19 2 33 12 33 5 0 7 -5 3 -12 -4 -7 -3 -8 5 -4
6 4 8 12 5 18 -4 5 3 20 15 32 12 11 37 38 56 59 22 25 39 36 47 31 9 -6 9 -3
-1 10 -13 15 -12 18 7 22 12 4 19 11 15 20 -3 9 2 14 13 14 16 0 16 2 4 10
-12 8 -12 10 2 15 9 4 18 16 21 27 3 11 10 17 16 13 7 -4 8 0 4 11 -5 13 -3
15 8 9 12 -8 12 -6 0 8 -11 14 -11 18 2 23 8 3 18 17 21 30 4 14 10 23 15 20
4 -3 8 1 8 9 0 8 -5 15 -11 15 -7 0 -6 3 1 8 7 4 14 17 16 27 1 11 6 25 10 31
3 6 4 14 0 17 -3 4 -6 26 -6 49 0 43 -20 96 -41 110 -6 4 -7 8 -3 8 12 0 -19
30 -31 30 -6 0 -12 6 -15 13 -6 16 -106 54 -187 71 -89 19 -379 13 -483 -10
-34 -7 -58 7 -150 89 -44 38 -245 170 -264 173 -9 2 -19 7 -22 12 -11 17 -235
112 -263 112 -8 0 -18 4 -24 9 -5 5 -22 11 -39 14 -16 3 -50 10 -75 17 -53 14
-63 16 -127 26 -26 3 -57 9 -68 11 -21 5 -353 12 -357 7z"/>
<path d="M4340 3011 c0 -13 -68 -111 -101 -146 -16 -17 -29 -34 -29 -37 0 -4
-31 -39 -70 -79 -38 -40 -70 -77 -70 -81 0 -4 -5 -8 -11 -8 -6 0 -30 -20 -54
-43 -24 -24 -67 -64 -97 -88 -29 -24 -58 -48 -64 -54 -14 -13 -63 -51 -139
-109 -33 -25 -65 -49 -70 -53 -6 -5 -28 -21 -50 -38 -22 -16 -41 -33 -43 -37
-2 -4 -8 -8 -13 -8 -5 0 -42 -22 -82 -49 -40 -26 -115 -76 -167 -109 -52 -34
-100 -66 -107 -72 -7 -5 -14 -10 -17 -10 -3 0 -29 -14 -58 -31 -86 -51 -121
-71 -153 -87 -16 -9 -32 -18 -35 -21 -7 -8 -33 -23 -122 -67 -40 -21 -75 -41
-78 -45 -3 -4 -17 -10 -32 -14 -15 -4 -32 -13 -39 -21 -6 -8 -15 -11 -20 -8
-5 3 -9 0 -9 -5 0 -6 -7 -11 -15 -11 -8 0 -39 -16 -69 -35 -30 -19 -58 -35
-61 -35 -7 0 -86 -52 -103 -67 -7 -7 -17 -13 -22 -13 -4 0 -44 -36 -88 -79
-87 -87 -132 -163 -140 -238 -5 -53 13 -124 39 -152 10 -11 19 -25 19 -31 0
-5 7 -10 15 -10 8 0 15 -7 15 -16 0 -8 4 -13 9 -10 5 3 23 -7 40 -23 16 -15
32 -26 35 -24 3 3 11 1 18 -3 21 -14 81 -34 101 -34 11 0 15 -4 11 -12 -5 -8
0 -9 14 -6 12 4 24 3 26 -1 2 -3 20 -6 40 -5 20 1 36 -2 36 -6 0 -5 12 -7 26
-4 14 3 32 0 40 -7 8 -7 14 -7 14 -1 0 12 33 10 42 -3 5 -6 8 -5 8 3 0 10 5
10 20 2 11 -6 20 -7 20 -3 0 5 17 9 38 10 20 0 57 3 82 5 25 3 51 0 59 -6 11
-8 13 -8 8 0 -11 19 60 23 80 4 15 -14 16 -14 5 1 -10 14 -9 17 8 22 13 3 18
1 13 -6 -4 -7 -1 -7 9 1 13 10 17 10 21 0 3 -8 6 -6 6 6 1 15 6 17 30 13 16
-4 31 -2 33 4 2 5 15 11 29 13 13 1 31 6 38 11 10 6 12 4 6 -6 -5 -9 -1 -8 11
3 10 9 22 17 26 18 11 1 39 10 63 20 44 18 56 20 50 7 -4 -6 0 -4 8 6 8 9 22
17 31 17 10 0 14 4 11 10 -3 6 1 7 9 4 9 -3 16 -1 16 5 0 7 10 10 24 7 18 -3
23 -1 19 9 -4 11 3 13 25 10 25 -3 30 0 25 13 -4 9 -3 14 1 10 5 -4 17 2 29
12 11 11 23 17 27 15 5 -3 11 2 14 11 5 12 14 14 34 10 16 -4 22 -3 14 2 -10
7 -10 11 2 21 8 7 20 10 26 6 5 -3 10 1 10 10 0 9 4 14 9 11 5 -3 12 1 15 10
4 9 9 14 12 11 3 -3 20 8 36 24 34 32 44 35 52 17 3 -7 4 -5 3 4 -2 18 90 108
111 108 7 0 10 5 7 10 -3 6 -1 10 5 10 6 0 8 5 4 12 -5 8 -2 9 9 5 10 -4 16
-2 14 5 -1 6 4 13 12 16 9 3 11 0 6 -8 -5 -8 -4 -11 3 -7 5 4 8 16 5 27 -3 12
0 20 6 20 7 0 9 -5 5 -12 -5 -7 -3 -8 5 -4 7 5 10 15 7 23 -4 10 -2 13 8 10
10 -4 13 -1 9 9 -3 9 0 14 8 12 7 -2 14 4 14 12 0 8 6 14 13 13 6 -2 9 3 6 11
-3 8 5 21 18 30 13 9 23 22 23 29 1 6 6 11 13 10 7 -2 11 0 10 5 -5 14 27 72
39 72 7 0 15 11 19 25 3 14 11 22 17 18 6 -4 7 -1 2 7 -4 7 -4 15 1 19 5 3 15
19 22 34 8 18 16 25 25 21 9 -6 9 -4 -1 8 -10 13 -10 17 3 22 9 3 13 10 10 16
-3 5 -1 10 5 10 6 0 8 5 5 10 -3 6 -1 10 6 10 7 0 9 3 6 6 -3 4 -1 16 5 28 7
11 11 24 10 29 -1 4 4 7 12 7 10 0 12 7 8 22 -3 14 -1 19 6 14 8 -4 10 -2 6 7
-3 8 0 18 6 22 9 6 9 10 -1 16 -10 6 -11 9 -1 9 6 0 12 7 12 15 0 8 4 15 10
15 5 0 6 7 3 17 -4 10 -2 14 4 10 6 -4 8 3 5 20 -3 18 -1 24 7 19 8 -5 10 0 7
18 -3 14 -1 26 4 26 4 0 8 6 7 13 -1 35 4 48 16 41 8 -5 8 -2 -2 9 -7 9 -9 17
-4 17 5 0 10 10 10 23 3 39 13 112 20 127 3 8 5 32 5 53 0 21 5 37 12 37 7 0
7 3 1 8 -6 4 -11 63 -11 147 0 147 -5 207 -28 322 -8 38 -36 81 -36 54z"/>
<path d="M4155 2920 c-3 -6 1 -7 9 -4 18 7 21 14 7 14 -6 0 -13 -4 -16 -10z"/>
<path d="M4050 2820 c0 -5 5 -10 11 -10 5 0 7 5 4 10 -3 6 -8 10 -11 10 -2 0
-4 -4 -4 -10z"/>
<path d="M3946 2738 c3 -5 10 -6 15 -3 13 9 11 12 -6 12 -8 0 -12 -4 -9 -9z"/>
<path d="M3436 2387 c3 -10 9 -15 12 -12 3 3 0 11 -7 18 -10 9 -11 8 -5 -6z"/>
<path d="M2930 2100 c0 -5 5 -10 11 -10 5 0 7 5 4 10 -3 6 -8 10 -11 10 -2 0
-4 -4 -4 -10z"/>
<path d="M2869 2063 c-13 -16 -12 -17 4 -4 16 13 21 21 13 21 -2 0 -10 -8 -17
-17z"/>
<path d="M2765 2020 c-3 -6 1 -7 9 -4 18 7 21 14 7 14 -6 0 -13 -4 -16 -10z"/>
<path d="M2690 1980 c0 -5 5 -10 11 -10 5 0 7 5 4 10 -3 6 -8 10 -11 10 -2 0
-4 -4 -4 -10z"/>
<path d="M2316 1818 c3 -4 11 -5 19 -1 21 7 19 12 -4 10 -11 0 -18 -5 -15 -9z"/>
<path d="M1976 1687 c3 -10 9 -15 12 -12 3 3 0 11 -7 18 -10 9 -11 8 -5 -6z"/>
<path d="M1575 1551 c-3 -5 -2 -12 3 -15 5 -3 9 1 9 9 0 17 -3 19 -12 6z"/>
<path d="M1540 1540 c-9 -6 -10 -10 -3 -10 6 0 15 5 18 10 8 12 4 12 -15 0z"/>
<path d="M1390 1479 c0 -5 5 -7 10 -4 6 3 10 8 10 11 0 2 -4 4 -10 4 -5 0 -10
-5 -10 -11z"/>
<path d="M1250 1459 c0 -5 5 -7 10 -4 6 3 10 8 10 11 0 2 -4 4 -10 4 -5 0 -10
-5 -10 -11z"/>
<path d="M935 1400 c3 -5 8 -10 11 -10 2 0 4 5 4 10 0 6 -5 10 -11 10 -5 0 -7
-4 -4 -10z"/>
<path d="M405 1380 c-3 -6 1 -7 9 -4 18 7 21 14 7 14 -6 0 -13 -4 -16 -10z"/>
<path d="M473 1375 c0 -8 4 -12 9 -9 5 3 6 10 3 15 -9 13 -12 11 -12 -6z"/>
<path d="M588 1383 c7 -3 16 -2 19 1 4 3 -2 6 -13 5 -11 0 -14 -3 -6 -6z"/>
<path d="M3796 1262 c-3 -5 1 -9 9 -9 8 0 12 4 9 9 -3 4 -7 8 -9 8 -2 0 -6 -4
-9 -8z"/>
<path d="M3520 1080 c-9 -6 -10 -10 -3 -10 6 0 15 5 18 10 8 12 4 12 -15 0z"/>
<path d="M2336 902 c-3 -5 1 -9 9 -9 8 0 12 4 9 9 -3 4 -7 8 -9 8 -2 0 -6 -4
-9 -8z"/>
<path d="M2855 871 c-3 -5 -2 -12 3 -15 5 -3 9 1 9 9 0 17 -3 19 -12 6z"/>
</g>
</svg>
