<svg xmlns="http://www.w3.org/2000/svg" width="682.667" height="682.667" preserveAspectRatio="xMidYMid meet" version="1.0" viewBox="0 0 512 512"><metadata>Created by potrace 1.11, written by Peter Selinger 2001-2013</metadata><g fill="#000" stroke="none"><path d="M2445 4374 c-49 -7 -121 -20 -160 -29 -38 -9 -74 -18 -80 -19 -29 -6 -151 -50 -159 -57 -6 -5 -18 -9 -27 -9 -51 0 -365 -184 -468 -275 -188 -164 -293 -289 -417 -495 -80 -133 -174 -381 -199 -525 -27 -158 -36 -233 -37 -320 l0 -90 -112 -87 c-164 -129 -190 -152 -317 -278 -254 -253 -364 -437 -353 -588 8 -114 87 -187 244 -228 75 -19 106 -21 270 -19 170 3 212 6 278 21 13 3 43 7 65 10 36 5 136 24 213 40 38 7 257 64 304 78 96 29 466 151 480 158 8 4 80 33 160 64 80 31 168 67 195 79 28 13 77 34 110 48 140 59 513 242 674 331 46 25 85 46 86 46 2 0 59 33 126 73 589 349 992 663 1242 966 53 65 145 212 145 231 0 3 7 23 17 45 9 22 18 65 19 95 7 149 -87 236 -299 276 -46 9 -318 10 -385 2 -25 -3 -67 -9 -95 -13 -54 -7 -44 -12 -150 83 -77 70 -235 169 -365 231 -168 78 -326 127 -475 146 -27 3 -57 9 -65 12 -29 11 -376 9 -465 -3z" transform="translate(0.000000,512.000000) scale(0.100000,-0.100000)"/><path d="M4386 2964 c-137 -217 -498 -545 -876 -797 -63 -42 -126 -85 -140 -94 -42 -30 -132 -83 -140 -83 -5 0 -10 -3 -12 -8 -7 -16 -314 -190 -613 -347 -60 -32 -122 -66 -137 -76 -14 -11 -29 -19 -32 -19 -4 0 -12 -4 -19 -10 -7 -5 -40 -31 -74 -56 -76 -55 -150 -137 -189 -207 -25 -45 -29 -62 -28 -127 0 -86 14 -119 73 -175 46 -44 109 -81 171 -101 25 -9 52 -18 60 -21 8 -3 31 -8 50 -10 19 -2 62 -8 95 -12 122 -17 375 2 518 40 20 5 41 7 46 4 5 -3 11 -1 13 4 1 6 14 12 28 14 40 8 151 47 210 75 30 14 57 26 60 27 88 27 316 178 439 290 84 77 152 150 201 214 14 19 33 42 43 52 9 11 17 21 17 24 0 3 20 34 45 71 25 36 45 72 45 80 0 8 4 14 9 14 8 0 89 172 125 268 16 42 64 215 71 257 23 132 28 196 28 350 0 150 -7 234 -27 337 -8 36 -19 68 -25 68 -3 0 -19 -21 -35 -46z" transform="translate(0.000000,512.000000) scale(0.100000,-0.100000)"/></g></svg>